Genre: Animation | Comedy | Family
Language:English 
http://www.imdb.com/title/tt0837562/
Source:NoGRP Thanks
Encoder:Tony

Format : AVI
Format/Info : Audio Video Interleave
File size : 763 MiB
Duration : 1h 25mn
Overall bit rate : 1 245 Kbps
Writing application : Lavf52.57.1

Video
ID : 0
Format : MPEG-4 Visual
Format profile : Simple@L5
Format settings, BVOP : No
Format settings, QPel : No
Format settings, GMC : No warppoints
Format settings, Matrix : Default (H.263)
Codec ID : XVID
Codec ID/Hint : XviD
Duration : 1h 25mn
Bit rate : 1 103 Kbps
Width : 640 pixels
Height : 360 pixels
Display aspect ratio : 16:9
Frame rate : 29.970 fps
Color space : YUV
Chroma subsampling : 4:2:0
Bit depth : 8 bits
Scan type : Progressive
Compression mode : Lossy
Bits/(Pixel*Frame) : 0.160
Stream size : 676 MiB (89%)
Writing library : XviD 64

Audio
ID : 1
Format : MPEG Audio
Format version : Version 1
Format profile : Layer 3
Mode : Joint stereo
Mode extension : MS Stereo
Codec ID : 55
Codec ID/Hint : MP3
Duration : 1h 25mn
Bit rate mode : Constant
Bit rate : 128 Kbps
Channel(s) : 2 channels
Sampling rate : 48.0 KHz
Compression mode : Lossy
Stream size : 78.4 MiB (10%)
Alignment : Aligned on interleaves
Interleave, duration : 24 ms (0.72 video frame)
Interleave, preload duration : 504 ms


Plot:
Dracula, who operates a high-end resort away from the human world, goes into overprotective mode when a boy discovers the resort and falls for the count's teen-aged daughter.
 
http://imageshack.us/a/img221/1671/vlcsnap2012100823h07m06.png 
http://imageshack.us/a/img40/2444/vlcsnap2012100823h09m42.png 
http://imageshack.us/a/img577/5828/vlcsnap2012100823h07m51.png 
http://imageshack.us/a/img845/8695/vlcsnap2012100823h09m02.png